<svg xmlns="http://www.w3.org/2000/svg" font-family="Apple SD Gothic Neo" viewBox="0 0 1792 1024" role="img" aria-labelledby="title desc">
<title id="title">장기 실행 AI 작업의 세 가지 재허가 경계</title>
<desc id="desc">보호 자료 읽기, 부작용 커밋, 완료 결과 공개를 각각 현재 권한으로 다시 확인하는 개요 도해.</desc>
<rect width="1792" height="1024" fill="#F7F6F2"/>
<style>
text{fill:#17212B}
.title{font-size:88px;font-weight:800}
.subtitle{font-size:74px;font-weight:700;fill:#59636E}
.heading{font-size:78px;font-weight:800}
.body{font-size:74px;font-weight:750}
.note{font-size:70px;font-weight:750}
</style>
<defs><filter id="shadow" x="-20%" y="-20%" width="140%" height="140%"><feDropShadow dx="0" dy="6" stdDeviation="9" flood-color="#000" flood-opacity="0.13"/></filter></defs>
<text x="90" y="100" class="title" text-anchor="start">장기 실행 작업은 세 번 다시 허가합니다</text><text x="90" y="175" class="subtitle" text-anchor="start">보호 행동 직전에 현재 권한을 다시 확인합니다.</text><rect x="495" y="220" width="802" height="100" rx="28" fill="#FFF1F1" stroke="#B23535" stroke-width="4"/><text x="896" y="290" class="body" text-anchor="middle" fill="#B23535">회수 · 만료 · 정책 변경 · 취소</text><line x1="896" y1="322" x2="896.0" y2="351.0" stroke="#B23535" stroke-width="7" stroke-linecap="round"/><polygon points="896,375 882.08,351.0 909.92,351.0" fill="#B23535"/><circle cx="896" cy="515" r="130" fill="#FFFFFF" stroke="#1E5AA8" stroke-width="7" filter="url(#shadow)"/><text x="896" y="500" class="heading" text-anchor="middle" fill="#1E5AA8">장기 Task</text><text x="896" y="575" class="body" text-anchor="middle">상태 ≠ 권한</text><rect x="55" y="420" width="410" height="185" rx="32" fill="#FFFFFF" stroke="#177C75" stroke-width="5" filter="url(#shadow)"/><text x="260.0" y="498" class="heading" text-anchor="middle" fill="#177C75">보호 자료 읽기</text><text x="260.0" y="565" class="body" text-anchor="middle">읽기 전 재검사</text><rect x="1327" y="420" width="410" height="185" rx="32" fill="#FFFFFF" stroke="#C35A18" stroke-width="5" filter="url(#shadow)"/><text x="1532.0" y="498" class="heading" text-anchor="middle" fill="#C35A18">부작용 커밋</text><text x="1532.0" y="565" class="body" text-anchor="middle">커밋 전 재검사</text><rect x="596" y="730" width="600" height="185" rx="32" fill="#FFFFFF" stroke="#6A4FA3" stroke-width="5" filter="url(#shadow)"/><text x="896.0" y="808" class="heading" text-anchor="middle" fill="#6A4FA3">완료 결과 공개</text><text x="896.0" y="875" class="body" text-anchor="middle">공개 전 재검사</text><line x1="760" y1="515" x2="499.0" y2="515.0" stroke="#177C75" stroke-width="7" stroke-linecap="round"/><polygon points="475,515 499.0,501.08 499.0,528.92" fill="#177C75"/><line x1="1032" y1="515" x2="1293.0" y2="515.0" stroke="#C35A18" stroke-width="7" stroke-linecap="round"/><polygon points="1317,515 1293.0,528.92 1293.0,501.08" fill="#C35A18"/><line x1="896" y1="646" x2="896.0" y2="694.0" stroke="#6A4FA3" stroke-width="7" stroke-linecap="round"/><polygon points="896,718 882.08,694.0 909.92,694.0" fill="#6A4FA3"/><rect x="190" y="935" width="1412" height="70" rx="24" fill="#EAF0F7" stroke="#1E5AA8" stroke-width="3"/><text x="896" y="987" class="body" text-anchor="middle" fill="#1E5AA8">task ID · TTL · 완료  ≠  현재 권한</text>
</svg>