<svg xmlns="http://www.w3.org/2000/svg" width="1792" height="1024" viewBox="0 0 1792 1024" role="img" aria-labelledby="title desc">
    <title id="title">지식그래프 기반 LLM 계획 구조</title><desc id="desc">질문에서 세 가지 지도, PlanningContext, LLM과 Validator로 이어지는 흐름</desc><defs>
    <marker id="arrow" viewBox="0 0 10 10" refX="8" refY="5" markerWidth="8" markerHeight="8" orient="auto-start-reverse"><path d="M0 0L10 5L0 10z" fill="#102436"/></marker>
    <filter id="shadow" x="-20%" y="-20%" width="140%" height="140%"><feDropShadow dx="0" dy="8" stdDeviation="12" flood-color="#102436" flood-opacity="0.09"/></filter>
  </defs><rect x="0" y="0" width="1792" height="1024" rx="0" fill="#F4F0E8" stroke="none" stroke-width="0" /><text x="72" y="82" font-family="Pretendard, Apple SD Gothic Neo, Noto Sans KR, sans-serif" font-size="56" font-weight="800" fill="#102436" text-anchor="start" >지식그래프는 계획의 답지가 아니라 지도다</text><text x="74" y="126" font-family="Pretendard, Apple SD Gothic Neo, Noto Sans KR, sans-serif" font-size="25" font-weight="500" fill="#66737A" text-anchor="start" >근거 · 영향 가설 · 행동 계약을 PlanningContext로 편성해 LLM의 조건부 계획을 돕는다</text><rect x="64" y="210" width="250" height="500" rx="28" fill="#FFFDF8" stroke="#C9C6BD" stroke-width="2" filter="url(#shadow)"/><circle cx="128" cy="280" r="34" fill="#F4E9C7" stroke="none" stroke-width="0"/><text x="128" y="291" font-family="Pretendard, Apple SD Gothic Neo, Noto Sans KR, sans-serif" font-size="42" font-weight="800" fill="#D5A43A" text-anchor="middle" >?</text><text x="96" y="352" font-family="Pretendard, Apple SD Gothic Neo, Noto Sans KR, sans-serif" font-size="32" font-weight="800" fill="#102436" text-anchor="start" >자연어 질문</text><text x="96" y="400" font-family="Pretendard, Apple SD Gothic Neo, Noto Sans KR, sans-serif" font-size="26" font-weight="600" fill="#253239" text-anchor="start"><tspan x="96" dy="0">무엇을 먼저</tspan><tspan x="96" dy="37.699999999999996">확인하고</tspan><tspan x="96" dy="37.699999999999996">무엇을 할까?</tspan></text><rect x="94" y="595" width="180" height="48" rx="24" fill="#F4E9C7" stroke="none" stroke-width="0" /><text x="184" y="625.8" font-family="Pretendard, Apple SD Gothic Neo, Noto Sans KR, sans-serif" font-size="20" font-weight="700" fill="#D5A43A" text-anchor="middle" >목표 · 제약</text><rect x="340" y="188" width="360" height="154" rx="24" fill="#FFFDF8" stroke="#2F7D6C" stroke-width="2" filter="url(#shadow)"/><rect x="340" y="188" width="18" height="154" rx="18" fill="#DDEBE6" stroke="none" stroke-width="0" /><g transform="translate(362 225)" fill="none" stroke="#2F7D6C" stroke-width="5" stroke-linejoin="round"><path d="M8 2h48l18 18v62H8z"/><path d="M56 2v20h20"/><path d="M22 42h40M22 58h32"/></g><text x="456" y="243" font-family="Pretendard, Apple SD Gothic Neo, Noto Sans KR, sans-serif" font-size="29" font-weight="800" fill="#102436" text-anchor="start" >세계·근거 지도</text><text x="456" y="282" font-family="Pretendard, Apple SD Gothic Neo, Noto Sans KR, sans-serif" font-size="21" font-weight="500" fill="#66737A" text-anchor="start"><tspan x="456" dy="0">사건 · 관찰 · Claim</tspan><tspan x="456" dy="29.4">Evidence · 시간 · 출처</tspan></text><rect x="340" y="382" width="360" height="154" rx="24" fill="#FFFDF8" stroke="#D5A43A" stroke-width="2" filter="url(#shadow)"/><rect x="340" y="382" width="18" height="154" rx="18" fill="#F4E9C7" stroke="none" stroke-width="0" /><g transform="translate(362 420)" fill="#FFFDF8" stroke="#D5A43A" stroke-width="5"><line x1="20" y1="25" x2="62" y2="8" stroke="#D5A43A" stroke-width="4" stroke-linecap="round"  /><line x1="20" y1="25" x2="66" y2="55" stroke="#D5A43A" stroke-width="4" stroke-linecap="round"  /><line x1="62" y1="8" x2="66" y2="55" stroke="#D5A43A" stroke-width="4" stroke-linecap="round"  /><circle cx="20" cy="25" r="10" fill="#FFFDF8" stroke="#D5A43A" stroke-width="5"/><circle cx="62" cy="8" r="10" fill="#FFFDF8" stroke="#D5A43A" stroke-width="5"/><circle cx="66" cy="55" r="10" fill="#FFFDF8" stroke="#D5A43A" stroke-width="5"/></g><text x="456" y="437" font-family="Pretendard, Apple SD Gothic Neo, Noto Sans KR, sans-serif" font-size="29" font-weight="800" fill="#102436" text-anchor="start" >영향 지도</text><text x="456" y="476" font-family="Pretendard, Apple SD Gothic Neo, Noto Sans KR, sans-serif" font-size="21" font-weight="500" fill="#66737A" text-anchor="start"><tspan x="456" dy="0">Lever → Outcome</tspan><tspan x="456" dy="29.4">조건 · 지연 · 부작용</tspan></text><rect x="340" y="576" width="360" height="154" rx="24" fill="#FFFDF8" stroke="#C65C46" stroke-width="2" filter="url(#shadow)"/><rect x="340" y="576" width="18" height="154" rx="18" fill="#F2DDD6" stroke="none" stroke-width="0" /><g transform="translate(362 615)" fill="none" stroke="#C65C46" stroke-width="5" stroke-linecap="round" stroke-linejoin="round"><rect x="4" y="8" width="72" height="70" rx="10"/><path d="M22 30l8 8 14-18M22 56l8 8 14-18M50 31h14M50 57h14"/></g><text x="456" y="631" font-family="Pretendard, Apple SD Gothic Neo, Noto Sans KR, sans-serif" font-size="29" font-weight="800" fill="#102436" text-anchor="start" >행동 계약</text><text x="456" y="670" font-family="Pretendard, Apple SD Gothic Neo, Noto Sans KR, sans-serif" font-size="21" font-weight="500" fill="#66737A" text-anchor="start"><tspan x="456" dy="0">Action · Precondition</tspan><tspan x="456" dy="29.4">Permission · Observation · Rollback</tspan></text><path d="M314 450 C330 450 324 265 340 265" fill="none" stroke="#102436" stroke-width="4" stroke-linecap="round" stroke-linejoin="round" marker-end="url(#arrow)" /><line x1="314" y1="450" x2="340" y2="459" stroke="#102436" stroke-width="4" stroke-linecap="round" marker-end="url(#arrow)" /><path d="M314 450 C330 450 324 653 340 653" fill="none" stroke="#102436" stroke-width="4" stroke-linecap="round" stroke-linejoin="round" marker-end="url(#arrow)" /><rect x="770" y="220" width="390" height="490" rx="30" fill="#102436" stroke="#102436" stroke-width="0" filter="url(#shadow)"/><text x="965" y="278" font-family="Pretendard, Apple SD Gothic Neo, Noto Sans KR, sans-serif" font-size="39" font-weight="800" fill="#FFFFFF" text-anchor="middle" >PlanningContext</text><text x="965" y="315" font-family="Pretendard, Apple SD Gothic Neo, Noto Sans KR, sans-serif" font-size="20" font-weight="500" fill="#D8E4EA" text-anchor="middle" >질문 한 번을 위한 읽기 전용 작업공간</text><rect x="812" y="350" width="306" height="52" rx="14" fill="#F4E9C7" stroke="none" stroke-width="0" /><text x="834" y="384" font-family="Pretendard, Apple SD Gothic Neo, Noto Sans KR, sans-serif" font-size="20" font-weight="800" fill="#D5A43A" text-anchor="start" >Goal</text><text x="935" y="384" font-family="Pretendard, Apple SD Gothic Neo, Noto Sans KR, sans-serif" font-size="18" font-weight="500" fill="#253239" text-anchor="start" >안전하게 오류를 줄인다</text><rect x="812" y="416" width="306" height="52" rx="14" fill="#FFFFFF" stroke="none" stroke-width="0" /><text x="834" y="450" font-family="Pretendard, Apple SD Gothic Neo, Noto Sans KR, sans-serif" font-size="20" font-weight="800" fill="#102436" text-anchor="start" >State</text><text x="935" y="450" font-family="Pretendard, Apple SD Gothic Neo, Noto Sans KR, sans-serif" font-size="18" font-weight="500" fill="#253239" text-anchor="start" >관찰 · 경쟁 가설 · 미지</text><rect x="812" y="482" width="306" height="52" rx="14" fill="#FFFFFF" stroke="none" stroke-width="0" /><text x="834" y="516" font-family="Pretendard, Apple SD Gothic Neo, Noto Sans KR, sans-serif" font-size="20" font-weight="800" fill="#102436" text-anchor="start" >Actions</text><text x="935" y="516" font-family="Pretendard, Apple SD Gothic Neo, Noto Sans KR, sans-serif" font-size="18" font-weight="500" fill="#253239" text-anchor="start" >확인 · 우회 · 롤백</text><rect x="812" y="548" width="306" height="52" rx="14" fill="#FFFFFF" stroke="none" stroke-width="0" /><text x="834" y="582" font-family="Pretendard, Apple SD Gothic Neo, Noto Sans KR, sans-serif" font-size="20" font-weight="800" fill="#102436" text-anchor="start" >Constraints</text><text x="935" y="582" font-family="Pretendard, Apple SD Gothic Neo, Noto Sans KR, sans-serif" font-size="18" font-weight="500" fill="#253239" text-anchor="start" >계약 · 권한 · 용량</text><rect x="812" y="614" width="306" height="52" rx="14" fill="#FFFFFF" stroke="none" stroke-width="0" /><text x="834" y="648" font-family="Pretendard, Apple SD Gothic Neo, Noto Sans KR, sans-serif" font-size="20" font-weight="800" fill="#102436" text-anchor="start" >Observations</text><text x="935" y="648" font-family="Pretendard, Apple SD Gothic Neo, Noto Sans KR, sans-serif" font-size="18" font-weight="500" fill="#253239" text-anchor="start" >오류율 · 지연 · 부하</text><path d="M700 265 C735 265 735 465 770 465" fill="none" stroke="#2F7D6C" stroke-width="4" stroke-linecap="round" stroke-linejoin="round" marker-end="url(#arrow)" /><path d="M700 459 C735 459 735 465 770 465" fill="none" stroke="#D5A43A" stroke-width="4" stroke-linecap="round" stroke-linejoin="round" marker-end="url(#arrow)" /><path d="M700 653 C735 653 735 465 770 465" fill="none" stroke="#C65C46" stroke-width="4" stroke-linecap="round" stroke-linejoin="round" marker-end="url(#arrow)" /><rect x="1230" y="255" width="215" height="210" rx="28" fill="#FFFDF8" stroke="#2F7D6C" stroke-width="3" filter="url(#shadow)"/><circle cx="1337" cy="315" r="34" fill="#DDEBE6" stroke="none" stroke-width="0"/><text x="1337" y="326" font-family="Pretendard, Apple SD Gothic Neo, Noto Sans KR, sans-serif" font-size="24" font-weight="800" fill="#2F7D6C" text-anchor="middle" >LLM</text><text x="1337" y="383" font-family="Pretendard, Apple SD Gothic Neo, Noto Sans KR, sans-serif" font-size="30" font-weight="800" fill="#102436" text-anchor="middle" >조건부 계획</text><text x="1337" y="419" font-family="Pretendard, Apple SD Gothic Neo, Noto Sans KR, sans-serif" font-size="19" font-weight="500" fill="#66737A" text-anchor="middle" >가설 비교 · 순서 제안</text><line x1="1160" y1="465" x2="1230" y2="360" stroke="#102436" stroke-width="4" stroke-linecap="round" marker-end="url(#arrow)" /><rect x="1510" y="255" width="218" height="210" rx="28" fill="#FFFDF8" stroke="#D5A43A" stroke-width="3" filter="url(#shadow)"/><g transform="translate(1578 282)" fill="none" stroke="#D5A43A" stroke-width="6" stroke-linecap="round" stroke-linejoin="round"><path d="M42 4l32 12v24c0 23-13 38-32 48C23 78 10 63 10 40V16z"/><path d="M27 43l10 10 20-24"/></g><text x="1619" y="398" font-family="Pretendard, Apple SD Gothic Neo, Noto Sans KR, sans-serif" font-size="30" font-weight="800" fill="#102436" text-anchor="middle" >Validator</text><text x="1619" y="430" font-family="Pretendard, Apple SD Gothic Neo, Noto Sans KR, sans-serif" font-size="18" font-weight="500" fill="#66737A" text-anchor="middle" >권한 · 근거 · 금지 규칙</text><line x1="1445" y1="360" x2="1510" y2="360" stroke="#102436" stroke-width="4" stroke-linecap="round" marker-end="url(#arrow)" /><rect x="1225" y="555" width="155" height="54" rx="27" fill="#DDEBE6" stroke="none" stroke-width="0" /><text x="1302.5" y="589.14" font-family="Pretendard, Apple SD Gothic Neo, Noto Sans KR, sans-serif" font-size="21" font-weight="700" fill="#2F7D6C" text-anchor="middle" >승인 요청</text><rect x="1405" y="555" width="155" height="54" rx="27" fill="#F4E9C7" stroke="none" stroke-width="0" /><text x="1482.5" y="589.14" font-family="Pretendard, Apple SD Gothic Neo, Noto Sans KR, sans-serif" font-size="21" font-weight="700" fill="#D5A43A" text-anchor="middle" >추가 조사</text><rect x="1585" y="555" width="143" height="54" rx="27" fill="#F2DDD6" stroke="none" stroke-width="0" /><text x="1656.5" y="589.14" font-family="Pretendard, Apple SD Gothic Neo, Noto Sans KR, sans-serif" font-size="21" font-weight="700" fill="#C65C46" text-anchor="middle" >보류</text><path d="M1619 465 C1619 515 1302 515 1302 555" fill="none" stroke="#2F7D6C" stroke-width="3" stroke-linecap="round" stroke-linejoin="round" marker-end="url(#arrow)" /><path d="M1619 465 C1619 520 1482 520 1482 555" fill="none" stroke="#D5A43A" stroke-width="3" stroke-linecap="round" stroke-linejoin="round" marker-end="url(#arrow)" /><line x1="1619" y1="465" x2="1657" y2="555" stroke="#C65C46" stroke-width="3" stroke-linecap="round" marker-end="url(#arrow)" /><rect x="64" y="800" width="1664" height="128" rx="24" fill="#FFFDF8" stroke="#C9C6BD" stroke-width="2" /><text x="104" y="850" font-family="Pretendard, Apple SD Gothic Neo, Noto Sans KR, sans-serif" font-size="22" font-weight="800" fill="#C65C46" text-anchor="start" >핵심</text><text x="104" y="892" font-family="Pretendard, Apple SD Gothic Neo, Noto Sans KR, sans-serif" font-size="27" font-weight="700" fill="#102436" text-anchor="start" >그래프는 계획을 만들지 않는다. LLM이 빠뜨리기 쉬운 사실·가설·행동·제약·관찰을 한 화면에 놓는다.</text>
  </svg>